<svg width="21" height="20" viewBox="0 0 21 20" fill="none" xmlns="http://www.w3.org/2000/svg">
<g id="arrow_right_alt">
<mask id="mask0_2128_628" style="mask-type:alpha" maskUnits="userSpaceOnUse" x="0" y="0" width="21" height="20">
<rect id="Bounding box" x="0.5" width="20" height="20" fill="#D9D9D9"/>
</mask>
<g mask="url(#mask0_2128_628)">
<path id="arrow_right_alt_2" d="M13.625 10.7501H5.25102C5.03823 10.7501 4.85986 10.6786 4.71592 10.5357C4.57197 10.3928 4.5 10.2157 4.5 10.0045C4.5 9.79321 4.57197 9.61466 4.71592 9.46883C4.85986 9.323 5.03823 9.25008 5.25102 9.25008H13.625L11.9583 7.58341C11.8056 7.43064 11.7292 7.25355 11.7292 7.05216C11.7292 6.85078 11.8022 6.67369 11.9484 6.52091C12.1078 6.36814 12.2882 6.29175 12.4896 6.29175C12.691 6.29175 12.8681 6.36814 13.0208 6.52091L15.9861 9.48619C16.0509 9.55101 16.1007 9.62716 16.1354 9.71466C16.1701 9.80216 16.1875 9.89591 16.1875 9.99591C16.1875 10.0959 16.1701 10.1897 16.1354 10.2772C16.1007 10.3647 16.0486 10.4459 15.9792 10.5209L13.0208 13.4792C12.8681 13.632 12.6944 13.7049 12.5 13.698C12.3056 13.6911 12.1286 13.6112 11.9692 13.4584C11.8231 13.3056 11.75 13.1286 11.75 12.9272C11.75 12.7258 11.8264 12.5487 11.9792 12.3959L13.625 10.7501Z" fill="#191919"/>
</g>
</g>
</svg>
