<svg id="Layer_1" data-name="Layer 1" xmlns="http://www.w3.org/2000/svg" viewBox="0 0 370 370"><defs><style>.cls-1{fill:#fff;fill-rule:evenodd;}</style></defs><path class="cls-1" d="M257.34,273.8c10.65-4.32,16.75-11.95,18.65-23.35a6,6,0,0,1,.31-1.1V227.19c-.84-1.85-2.17-2.61-4.51-2.61-2.09.07-3.79.08-5.5.08l-11.87,0V109.24c0-9-3.7-13.73-12.36-15.93l-.41-.12H106.22c-.53.19-1.08.36-1.61.54a21.21,21.21,0,0,0-3.68,1.44,13.85,13.85,0,0,0-6.87,9.14l-.35,1.29V263.34l.18.68c.16.62.32,1.24.53,1.85a14.3,14.3,0,0,0,10.73,9.6c.34.08.68.19,1,.3H250c.77-.21,1.56-.38,2.34-.56A32.52,32.52,0,0,0,257.34,273.8Zm-70-5.05-1.45.2h-76.6c-5.79,0-8.73-2.93-8.73-8.69V108.75c0-5.8,2.93-8.74,8.7-8.74H238.84c5.8,0,8.74,2.92,8.74,8.69v89.77l-12.36-12.42c-1.38-1.4-2.77-2.8-4.19-4.15s-3.35-1.5-4.56-.32l-2.66,2.61c-4.66,4.55-9.49,9.27-13.86,14.18-5.1,5.72-7.55,12.87-7.29,21.27l.08,2.77-.65,1.77-2,.38c-.43,0-.89.06-1.34.06H185.06c-3,0-4.21,1.2-4.22,4.24v6c0,3.58,0,7.16,0,10.74a29.22,29.22,0,0,0,6.28,18.88c.2.27.38.55.56.84l.57.9Zm37.33-9.57-.69,4-3.91-4.1c-.66-.7-1.31-1.39-2-2.07q-4-4.08-8.1-8.11c-1.72-1.69-3.73-1.89-5.21-.44a3.2,3.2,0,0,0-1,2.27,4.22,4.22,0,0,0,1.34,2.92c2.19,2.21,4.39,4.4,6.57,6.6l3.61,3.59c.31.31.59.63.89,1l3,3.28-3.79.59a26.91,26.91,0,0,1-4.34.35c-12.13,0-21.64-8.18-23.1-19.89a69.48,69.48,0,0,1-.22-10.73c.05-1.69.1-3.41.1-5.19v-2.16l2.16.1c1.81.09,3.62.12,5.42.15a86.32,86.32,0,0,1,12.29.83c9.37,1.55,16.83,10.24,17.35,20.21A30.93,30.93,0,0,1,224.63,259.18Zm2.76-42.76a3.48,3.48,0,0,0-2.25,3.47c0,1.71,0,3.41,0,5.12v2.86c0,.4,0,.81-.05,1.32l-.23,4.59L221,231.05a11.8,11.8,0,0,0-1-.68c-.65-.37-1.28-.75-1.91-1.13a26.75,26.75,0,0,0-4.63-2.42,5.52,5.52,0,0,1-3.87-5.16c-.75-7.12.79-13.06,4.6-17.67,2.79-3.38,5.81-6.44,8.73-9.41,1.2-1.22,2.37-2.41,3.49-3.58l1.4-1.48,1.49,1.4q2,1.89,4.09,3.69a100.33,100.33,0,0,1,8.81,8.53c4.64,5.29,6.37,12.21,5,20a4.38,4.38,0,0,1-2.07,3c-2.47,1.33-5,2.62-7.62,4l-5.56,2.84,0-6.39c0-2.25,0-4.57,0-6.87A3.39,3.39,0,0,0,227.39,216.42Zm20.27,52.51c-.66,0-1.31,0-2,0l-8.94,0,9.92-9.83c1.89-1.87,3.78-3.74,5.62-5.65a3.4,3.4,0,1,0-4.83-4.76c-2.24,2.2-4.45,4.41-6.67,6.64l-8.07,7.84-.53-4c-1.62-12.32,4.45-23,15.1-26.47a20.23,20.23,0,0,1,5.74-1.1c2.09-.06,4.17-.07,6.31-.07l10.59,0-.12,2.17c-.11,1.87-.15,3.72-.19,5.58a78.54,78.54,0,0,1-1,12.68C266.76,261.5,258,268.63,247.66,268.93Z"/><path class="cls-1" d="M124.82,118.93a5.46,5.46,0,1,1-5.31-5.55A5.5,5.5,0,0,1,124.82,118.93Z"/><path class="cls-1" d="M155.79,124.31a5.47,5.47,0,1,1,5.5-5.38A5.55,5.55,0,0,1,155.79,124.31Z"/><path class="cls-1" d="M192.37,124.31a5.47,5.47,0,1,1-.05-10.93,5.47,5.47,0,0,1,.05,10.93Z"/><path class="cls-1" d="M234.22,118.93a5.46,5.46,0,1,1-5.33-5.55A5.5,5.5,0,0,1,234.22,118.93Z"/><path class="cls-1" d="M119.38,146.2a5.47,5.47,0,1,1-.11,10.93,5.47,5.47,0,0,1,.11-10.93Z"/><path class="cls-1" d="M155.91,146.2a5.47,5.47,0,1,1-5.54,5.34A5.5,5.5,0,0,1,155.91,146.2Z"/><path class="cls-1" d="M197.75,151.58a5.46,5.46,0,1,1-5.49-5.38A5.5,5.5,0,0,1,197.75,151.58Z"/><path class="cls-1" d="M234.22,151.59a5.46,5.46,0,1,1-5.48-5.39A5.51,5.51,0,0,1,234.22,151.59Z"/><path class="cls-1" d="M124.82,184.45a5.5,5.5,0,0,1-5.37,5.5,5.47,5.47,0,1,1-.06-10.93A5.48,5.48,0,0,1,124.82,184.45Z"/><path class="cls-1" d="M155.9,179a5.47,5.47,0,1,1-5.53,5.35A5.5,5.5,0,0,1,155.9,179Z"/><path class="cls-1" d="M197.75,184.53a5.5,5.5,0,0,1-5.46,5.42A5.47,5.47,0,1,1,192.4,179,5.49,5.49,0,0,1,197.75,184.53Z"/><path class="cls-1" d="M124.82,217.31a5.49,5.49,0,0,1-5.41,5.45,5.46,5.46,0,1,1,0-10.92A5.48,5.48,0,0,1,124.82,217.31Z"/><path class="cls-1" d="M161.29,217.36a5.46,5.46,0,1,1-5.36-5.52A5.5,5.5,0,0,1,161.29,217.36Z"/><path class="cls-1" d="M119.37,244.66a5.46,5.46,0,1,1-.08,10.92,5.46,5.46,0,0,1,.08-10.92Z"/><path class="cls-1" d="M155.89,255.58a5.46,5.46,0,1,1,5.4-5.47A5.53,5.53,0,0,1,155.89,255.58Z"/></svg>