<svg id="Layer_1" data-name="Layer 1" xmlns="http://www.w3.org/2000/svg" viewBox="0 0 370 370"><defs><style>.cls-1{fill:#fff;}</style></defs><g id="IjWDnq.tif"><path class="cls-1" d="M296.91,251.56c-.28.65-.55,1.31-.84,2a10.81,10.81,0,0,1-9.1,6.88,25.85,25.85,0,0,1-3.05.14q-98.87,0-197.74,0a20,20,0,0,1-4.77-.43,10.91,10.91,0,0,1-8.24-10.56c-.06-13.77-.19-27.54.11-41.29A19.09,19.09,0,0,1,76.12,199c13.15-21.21,26.55-42.26,39.88-63.37A11.26,11.26,0,0,1,126.19,130c3.28,0,6.56,0,9.83,0,2.58,0,4.24,1.5,4.23,3.69s-1.66,3.7-4.23,3.73c-3.28.05-6.57-.18-9.82.11a5.58,5.58,0,0,0-3.76,2q-19.26,30.18-38.3,60.5a3.78,3.78,0,0,0-.18.58H286.14c-.3-.56-.56-1.12-.88-1.63q-18.52-29.36-37-58.72a5.33,5.33,0,0,0-5.17-2.88c-3,.14-6,.06-8.95,0-2.61,0-4.26-1.46-4.31-3.65s1.65-3.76,4.36-3.78c3.21,0,6.41,0,9.62,0,4.65-.05,8,2,10.47,5.92,6.73,10.73,13.52,21.41,20.28,32.12,6,9.53,12.13,19,18,28.64,1.78,2.93,2.93,6.26,4.37,9.4ZM80.62,223.21c0,9-.05,17.74,0,26.46a3.24,3.24,0,0,0,3,3.25,19.36,19.36,0,0,0,3,.13H263.25c7.14,0,14.28,0,21.42,0,3.51,0,4.78-1.27,4.79-4.7q0-11.58,0-23.16c0-.62-.09-1.24-.15-2H120c-.8,0-1.61,0-2.4,0a3.6,3.6,0,0,1-3.41-3.36,3.68,3.68,0,0,1,3-3.94,14.26,14.26,0,0,1,2.62-.11H289.28v-7.3H80.76v7.3h2.58c5.1,0,10.2,0,15.29,0,2.37,0,3.88,1.13,4.23,3,.47,2.51-1.21,4.41-4,4.43C92.85,223.23,86.89,223.21,80.62,223.21Z"/><path class="cls-1" d="M186.34,96.42c4.08,4,8.2,8,12.24,12.07a3.68,3.68,0,0,1,.21,5.45c-1.53,1.52-3.69,1.48-5.45-.21-1.36-1.32-2.61-2.74-4.43-4.65-.07,1.47-.14,2.27-.14,3.07q0,26.65,0,53.31c0,3.74-1.22,5.56-3.72,5.57s-3.75-1.82-3.75-5.55q0-26.53,0-53.09v-2.52l-.59-.32c-1.27,1.34-2.51,2.73-3.83,4-1.87,1.83-4,1.93-5.61.36s-1.48-3.77.36-5.6c4-4,8.06-8,12.09-11.92Z"/><path class="cls-1" d="M152.68,96.42c4.2,4.11,8.44,8.19,12.58,12.36a3.58,3.58,0,0,1,0,5.11,3.69,3.69,0,0,1-5.29,0,24.46,24.46,0,0,1-2.17-2.15c-.66-.75-1.25-1.58-1.86-2.37l-.61.35c0,.76-.1,1.51-.1,2.27q0,26.73,0,53.47a10.77,10.77,0,0,1-.31,3,3.31,3.31,0,0,1-3.67,2.47,3.4,3.4,0,0,1-3.38-3.12,17.45,17.45,0,0,1-.08-2.4V109.17c-1.73,1.72-3,3-4.34,4.29-2,1.94-4.16,2.09-5.76.45s-1.45-3.74.55-5.76q5-5,10-10a22.33,22.33,0,0,1,2.24-1.7Z"/><path class="cls-1" d="M219.55,96.42c2.3,2.11,4.63,4.18,6.88,6.32,1.9,1.81,3.75,3.67,5.56,5.56s2,4,.4,5.61-3.79,1.5-5.76-.46c-1.28-1.27-2.47-2.65-3.7-4l-.65.26V112q0,26.74,0,53.48c0,3.78-1.17,5.57-3.66,5.59s-3.79-1.84-3.79-5.73q0-26.52,0-53v-3c-1.59,1.57-2.85,2.8-4.1,4-2.11,2-4.28,2.26-5.93.56s-1.37-3.8.6-5.75c4-3.92,8-7.81,12-11.72Z"/><path class="cls-1" d="M173.77,148.74a3.64,3.64,0,0,1-3.81,3.62,3.71,3.71,0,0,1,.18-7.41A3.65,3.65,0,0,1,173.77,148.74Z"/><path class="cls-1" d="M199.87,145a3.71,3.71,0,1,1,0,7.41,3.71,3.71,0,0,1,0-7.41Z"/><path class="cls-1" d="M233.53,152.36a3.71,3.71,0,1,1,.06-7.41,3.71,3.71,0,0,1-.06,7.41Z"/><path class="cls-1" d="M170.11,167.37a3.82,3.82,0,0,1-3.84,3.66,3.74,3.74,0,0,1-3.57-3.9,3.59,3.59,0,0,1,3.69-3.49A3.7,3.7,0,0,1,170.11,167.37Z"/><path class="cls-1" d="M203.63,163.64a3.59,3.59,0,0,1,3.72,3.68A3.74,3.74,0,0,1,203.6,171a3.86,3.86,0,0,1-3.66-3.64A3.7,3.7,0,0,1,203.63,163.64Z"/><path class="cls-1" d="M140.26,148.67a3.75,3.75,0,0,1-3.78,3.69,3.71,3.71,0,0,1,0-7.41A3.75,3.75,0,0,1,140.26,148.67Z"/><path class="cls-1" d="M110.43,283a3.73,3.73,0,0,1,3.74,3.72,3.84,3.84,0,0,1-3.84,3.68,3.73,3.73,0,0,1-3.57-3.67A3.6,3.6,0,0,1,110.43,283Z"/><path class="cls-1" d="M147.81,290.37a3.83,3.83,0,0,1-3.81-3.71,3.7,3.7,0,0,1,3.53-3.69,3.59,3.59,0,0,1,3.87,3.53A3.75,3.75,0,0,1,147.81,290.37Z"/><path class="cls-1" d="M226.05,286.57a3.85,3.85,0,0,1-3.71,3.8,3.74,3.74,0,0,1-3.69-3.56A3.59,3.59,0,0,1,222.2,283,3.7,3.7,0,0,1,226.05,286.57Z"/><path class="cls-1" d="M263.29,286.62a3.74,3.74,0,0,1-3.71,3.75,3.84,3.84,0,0,1-3.69-3.82,3.71,3.71,0,0,1,3.65-3.59A3.6,3.6,0,0,1,263.29,286.62Z"/><path class="cls-1" d="M166.31,186a3.58,3.58,0,0,1-3.75,3.64,3.7,3.7,0,0,1-3.64-3.59,3.82,3.82,0,0,1,3.7-3.8A3.7,3.7,0,0,1,166.31,186Z"/><path class="cls-1" d="M121.67,182.23a3.68,3.68,0,0,1,3.61,3.81,3.59,3.59,0,0,1-3.82,3.57,3.66,3.66,0,0,1-3.54-3.66A3.75,3.75,0,0,1,121.67,182.23Z"/><path class="cls-1" d="M252.13,185.86a3.67,3.67,0,0,1-3.68,3.75,3.57,3.57,0,0,1-3.68-3.48,3.69,3.69,0,0,1,3.53-3.9A3.76,3.76,0,0,1,252.13,185.86Z"/><path class="cls-1" d="M114.16,271.72a3.81,3.81,0,0,1-3.78,3.72,3.72,3.72,0,0,1-3.62-3.83,3.57,3.57,0,0,1,3.63-3.55A3.67,3.67,0,0,1,114.16,271.72Z"/><path class="cls-1" d="M147.79,275.44a3.8,3.8,0,0,1-3.79-3.71,3.68,3.68,0,0,1,3.55-3.67,3.58,3.58,0,0,1,3.85,3.53A3.73,3.73,0,0,1,147.79,275.44Z"/><path class="cls-1" d="M222.26,268.06a3.68,3.68,0,0,1,3.79,3.65,3.81,3.81,0,0,1-3.77,3.73,3.71,3.71,0,0,1-3.63-3.6A3.58,3.58,0,0,1,222.26,268.06Z"/><path class="cls-1" d="M259.68,268.06a3.58,3.58,0,0,1,3.61,3.78,3.73,3.73,0,0,1-3.64,3.6,3.8,3.8,0,0,1-3.76-3.74A3.67,3.67,0,0,1,259.68,268.06Z"/><path class="cls-1" d="M132.76,167.35a3.68,3.68,0,1,1-7.36-.19,3.68,3.68,0,0,1,7.36.19Z"/><path class="cls-1" d="M240.92,163.64a3.62,3.62,0,0,1,3.73,3.67,3.69,3.69,0,0,1-7.37.1A3.63,3.63,0,0,1,240.92,163.64Z"/><path class="cls-1" d="M207.42,182.23a3.8,3.8,0,0,1,3.71,3.78,3.7,3.7,0,0,1-3.85,3.6,3.55,3.55,0,0,1-3.54-3.63A3.69,3.69,0,0,1,207.42,182.23Z"/><path class="cls-1" d="M185,268.06a3.6,3.6,0,0,1,3.74,3.65,3.68,3.68,0,0,1-7.36.13A3.62,3.62,0,0,1,185,268.06Z"/><path class="cls-1" d="M185.12,290.37a3.75,3.75,0,0,1-3.78-3.69,3.68,3.68,0,0,1,7.36-.2A3.74,3.74,0,0,1,185.12,290.37Z"/></g></svg>